<mxfile host="app.diagrams.net" modified="2023-12-08T03:20:48.093Z" agent="Mozilla/5.0 (X11; Linux x86_64) AppleWebKit/537.36 (KHTML, like Gecko) Chrome/119.0.0.0 Safari/537.36" version="21.6.1" etag="NIUG_d4AmLJ6Hhufn6gm" type="github">
  <diagram name="Page-1" id="dnes1rrM5eoq0H2WUz9b">
    <mxGraphModel>
      <root>
        <mxCell id="0" />
        <mxCell id="1" parent="0" />
      </root>
    </mxGraphModel>
  </diagram>
</mxfile>
